<svg width="1600" height="987" viewBox="0 0 1600 987" fill="none" xmlns="http://www.w3.org/2000/svg">
<path d="M406.499 1.26115C183.732 6.15746 39.347 89.2985 -5 120.629V873.853C387.729 993.463 561.5 862 696.5 862C816.716 862 929.554 916.375 1016.94 937.277C1104.78 958.284 1292.48 1037.8 1482.68 937.277C1672.88 836.751 1630.47 685.357 1659 680.986V500.836V126.601C1644.09 67.7749 1488.52 18.3227 1341.5 44.541C1227.5 64.8708 1084.7 100.609 925.771 72.9571C871.354 63.4892 825.831 54.2421 792.73 44.541C725.178 28.22 553.359 -3.28542 406.499 1.26115Z" fill="url(#paint0_linear_120_270)"/>
<path d="M406.499 1.26115C183.732 6.15746 39.347 89.2985 -5 120.629V873.853C387.729 993.463 561.5 862 696.5 862C816.716 862 929.554 916.375 1016.94 937.277C1104.78 958.284 1292.48 1037.8 1482.68 937.277C1672.88 836.751 1630.47 685.357 1659 680.986V500.836V126.601C1644.09 67.7749 1488.52 18.3227 1341.5 44.541C1227.5 64.8708 1084.7 100.609 925.771 72.9571C871.354 63.4892 825.831 54.2421 792.73 44.541C725.178 28.22 553.359 -3.28542 406.499 1.26115Z" fill="#8B8B8B" style="mix-blend-mode:multiply"/>
<defs>
<linearGradient id="paint0_linear_120_270" x1="666.908" y1="-47.9991" x2="924.234" y2="1033.93" gradientUnits="userSpaceOnUse">
<stop stop-color="#2532DE"/>
<stop offset="1" stop-color="#1CD8E9"/>
</linearGradient>
</defs>
</svg>
