<svg width="1600" height="984" viewBox="0 0 1600 984" fill="none" xmlns="http://www.w3.org/2000/svg">
<path d="M399 16.0076C183 20.4897 43 78.9708 0 107.651V880.417C380.8 989.909 725 991.403 850 978.463C1004.9 966.619 1055.15 952.047 1145.3 925.909L1149 924.838C1226.78 902.292 1351.67 841.999 1403 814.786C1501.5 765.963 1572.33 747.554 1600 743.552V0C1588 8.80417 1543.8 33.1357 1463 60.0284C1280.49 122.036 1056.6 106.951 902.5 81.6387C849.736 72.9717 805.596 64.5068 773.5 55.6264C708 40.686 541.4 11.8456 399 16.0076Z" fill="url(#paint0_linear_115_171)"/>
<path d="M399 16.0076C183 20.4897 43 78.9708 0 107.651V880.417C380.8 989.909 725 991.403 850 978.463C1004.9 966.619 1055.15 952.047 1145.3 925.909L1149 924.838C1226.78 902.292 1351.67 841.999 1403 814.786C1501.5 765.963 1572.33 747.554 1600 743.552V0C1588 8.80417 1543.8 33.1357 1463 60.0284C1280.49 122.036 1056.6 106.951 902.5 81.6387C849.736 72.9717 805.596 64.5068 773.5 55.6264C708 40.686 541.4 11.8456 399 16.0076Z" fill="#8B8B8B" style="mix-blend-mode:multiply"/>
<defs>
<linearGradient id="paint0_linear_115_171" x1="651.5" y1="-29.0854" x2="875.188" y2="967.117" gradientUnits="userSpaceOnUse">
<stop stop-color="#2532DE"/>
<stop offset="1" stop-color="#1CD8E9"/>
</linearGradient>
</defs>
</svg>
