<svg width="1600" height="854" viewBox="0 0 1600 854" fill="none" xmlns="http://www.w3.org/2000/svg">
<path d="M1659 588.641V0H-59V575.751C-39.6725 625.163 18.31 667.592 87.03 679.945C138.141 681.664 184.92 735.086 202.458 761.582C208.901 775.546 231.557 808.523 270.641 828.717C314.128 851.811 377.3 854.139 410.229 853.96C423.293 853.602 463.916 852.671 521.899 851.811C579.881 850.952 633.032 818.154 652.359 801.863C717.321 755.137 733.964 722.375 789.799 709.485C849.929 697.669 927.239 780.38 980.927 816.364C1023.88 845.152 1074.34 849.842 1094.21 848.589L1218.23 853.96C1238.27 854.497 1289.74 849.878 1335.26 827.106C1380.79 804.333 1414.01 763.909 1424.92 746.543L1425.48 745.768C1441.01 724.328 1462.89 694.132 1538.74 668.13C1615.51 641.812 1653.09 603.859 1659 588.641Z" fill="url(#paint0_linear_120_274)"/>
<path d="M1659 588.641V0H-59V575.751C-39.6725 625.163 18.31 667.592 87.03 679.945C138.141 681.664 184.92 735.086 202.458 761.582C208.901 775.546 231.557 808.523 270.641 828.717C314.128 851.811 377.3 854.139 410.229 853.96C423.293 853.602 463.916 852.671 521.899 851.811C579.881 850.952 633.032 818.154 652.359 801.863C717.321 755.137 733.964 722.375 789.799 709.485C849.929 697.669 927.239 780.38 980.927 816.364C1023.88 845.152 1074.34 849.842 1094.21 848.589L1218.23 853.96C1238.27 854.497 1289.74 849.878 1335.26 827.106C1380.79 804.333 1414.01 763.909 1424.92 746.543L1425.48 745.768C1441.01 724.328 1462.89 694.132 1538.74 668.13C1615.51 641.812 1653.09 603.859 1659 588.641Z" fill="#8A8A8A" style="mix-blend-mode:multiply"/>
<defs>
<linearGradient id="paint0_linear_120_274" x1="640.548" y1="-25.2429" x2="800.119" y2="853.978" gradientUnits="userSpaceOnUse">
<stop stop-color="#2532DE"/>
<stop offset="1" stop-color="#1CD8E9"/>
</linearGradient>
</defs>
</svg>
