<svg width="1600" height="218" viewBox="0 0 1600 218" fill="none" xmlns="http://www.w3.org/2000/svg">
<path d="M1600 218.65V159.15C1581.6 145.551 1531.67 135.483 1509 132.15C1435.5 121.65 1393.1 65.5623 1382.5 53.6504C1326 -9.8501 1193.5 0.650021 1136.5 0.650391L828 2.65033H489C403 -2.14967 349.167 0.650328 333 2.65033C249 12.2503 194.5 58.1503 172 83.6503C142 113.65 98.5 131.15 67 139.65C35.5 148.15 11.6667 155.484 0 160.15V218.65H1600Z" fill="url(#paint0_linear_120_146)"/>
<path d="M1600 218.65V159.15C1581.6 145.551 1531.67 135.483 1509 132.15C1435.5 121.65 1393.1 65.5623 1382.5 53.6504C1326 -9.8501 1193.5 0.650021 1136.5 0.650391L828 2.65033H489C403 -2.14967 349.167 0.650328 333 2.65033C249 12.2503 194.5 58.1503 172 83.6503C142 113.65 98.5 131.15 67 139.65C35.5 148.15 11.6667 155.484 0 160.15V218.65H1600Z" fill="#888888" style="mix-blend-mode:multiply"/>
<defs>
<linearGradient id="paint0_linear_120_146" x1="651.5" y1="-6.46295" x2="663.073" y2="225.482" gradientUnits="userSpaceOnUse">
<stop stop-color="#2532DE"/>
<stop offset="1" stop-color="#1CD8E9"/>
</linearGradient>
</defs>
</svg>
