<svg width="22" height="27" viewBox="0 0 22 27" fill="none" xmlns="http://www.w3.org/2000/svg">
<path d="M2.66667 0C1.95942 0 1.28115 0.280951 0.781048 0.781048C0.280951 1.28115 0 1.95942 0 2.66667V22.6667C0 24.1467 1.18667 25.3333 2.66667 25.3333V26.6667H5.33333V25.3333H16V26.6667H18.6667V25.3333C20.1467 25.3333 21.3333 24.1467 21.3333 22.6667V2.66667C21.3333 1.95942 21.0524 1.28115 20.5523 0.781048C20.0522 0.280951 19.3739 0 18.6667 0H2.66667ZM2.66667 2.66667H9.33333V22.6667H2.66667V2.66667ZM12 2.66667H18.6667V22.6667H12V2.66667ZM5.33333 10.6667V14.6667H8V10.6667H5.33333ZM13.3333 10.6667V14.6667H16V10.6667H13.3333Z" fill="white"/>
</svg>
