<svg width="49" height="38" viewBox="0 0 49 38" fill="none" xmlns="http://www.w3.org/2000/svg">
<path d="M41.4748 3.56198C46.87 11.5435 49.5344 20.5464 48.5384 30.9108C48.5342 30.9547 48.5115 30.9949 48.4757 31.0214C44.39 34.04 40.4316 35.8719 36.5287 37.0868C36.4983 37.0961 36.4657 37.0956 36.4357 37.0853C36.4056 37.0751 36.3794 37.0556 36.3609 37.0297C35.4592 35.7674 34.6399 34.4365 33.9221 33.039C33.8809 32.9566 33.9186 32.8575 34.0033 32.8251C35.3045 32.3318 36.5418 31.7406 37.7319 31.0406C37.8257 30.9853 37.8316 30.8501 37.745 30.7852C37.4924 30.5966 37.2422 30.3983 37.0028 30.2C36.958 30.1634 36.8977 30.1562 36.8469 30.1808C29.1205 33.7708 20.6566 33.7708 12.8389 30.1808C12.7881 30.158 12.7278 30.1658 12.6842 30.2018C12.4454 30.4001 12.1946 30.5966 11.9444 30.7852C11.8578 30.8501 11.8649 30.9853 11.9593 31.0406C13.1494 31.7273 14.3867 32.3318 15.686 32.8275C15.7702 32.8599 15.8102 32.9566 15.7684 33.039C15.0662 34.4383 14.2469 35.7692 13.3285 37.0315C13.2885 37.0826 13.2228 37.106 13.1607 37.0868C9.27632 35.8719 5.31788 34.04 1.23224 31.0214C1.1982 30.9949 1.17372 30.9529 1.17013 30.909C0.337718 21.9439 2.0342 12.8665 8.22715 3.56018C8.24208 3.53554 8.26477 3.51632 8.29104 3.5049C11.3383 2.09774 14.6028 1.0625 18.0149 0.471283C18.077 0.461669 18.1391 0.49051 18.1713 0.545786C18.5929 1.29683 19.0748 2.25997 19.4009 3.04706C22.9974 2.4943 26.6502 2.4943 30.322 3.04706C30.648 2.27679 31.1132 1.29683 31.533 0.545786C31.5479 0.518364 31.5711 0.496395 31.5992 0.483015C31.6273 0.469635 31.6589 0.465529 31.6894 0.471283C35.1033 1.06431 38.3679 2.09955 41.4127 3.5049C41.4395 3.51632 41.4616 3.53554 41.4748 3.56198V3.56198ZM21.2293 20.6077C21.2669 17.9574 19.3465 15.7643 16.9359 15.7643C14.5449 15.7643 12.643 17.9382 12.643 20.6077C12.643 23.2766 14.5825 25.4504 16.9359 25.4504C19.3274 25.4504 21.2293 23.2766 21.2293 20.6077V20.6077ZM37.1025 20.6077C37.1401 17.9574 35.2197 15.7643 32.8097 15.7643C30.4181 15.7643 28.5162 17.9382 28.5162 20.6077C28.5162 23.2766 30.4557 25.4504 32.8097 25.4504C35.2197 25.4504 37.1025 23.2766 37.1025 20.6077V20.6077Z" fill="#5865F2"/>
</svg>
